<svg width="512" height="512" viewBox="0 0 512 512" fill="none" xmlns="http://www.w3.org/2000/svg">
<path d="M498 256C498 391.363 389.824 501 256.5 501C123.176 501 15 391.363 15 256C15 120.637 123.176 11 256.5 11C389.824 11 498 120.637 498 256Z" fill="#CEDD23" stroke="black" stroke-width="8"/>
<path d="M151.376 308.859C5.37622 269.859 134.376 320.859 139.376 366.859C139.71 380.193 154.576 416.059 207.376 448.859C229.376 468.859 343.376 433.859 348.376 433.859C353.376 433.859 478 334 429.376 308.859C402.5 293.5 404.176 342.459 323.376 360.859C222.376 383.859 297.376 347.859 151.376 308.859Z" fill="#D9D9D9" stroke="black" stroke-width="8"/>
<path d="M209.97 199.485L150 243.056L90.0304 199.485L112.937 128.987H187.063L209.97 199.485Z" fill="white" stroke="black" stroke-width="8"/>
<path d="M421.97 199.485L362 243.056L302.03 199.485L324.937 128.987H399.063L421.97 199.485Z" fill="white" stroke="black" stroke-width="8"/>
</svg>
